<svg id="Arrow" xmlns="http://www.w3.org/2000/svg" width="31" height="98" viewBox="0 0 31 98">
  <defs>
    <style>
      .cls-1 {
        fill: #cecece;
        fill-rule: evenodd;
      }
    </style>
  </defs>
  <path id="Shape" class="cls-1" d="M7.982,91.181A1.5,1.5,0,0,1,7,88.552,58.3,58.3,0,0,0,26.98,44.54,57.927,57.927,0,0,0,10.347,3.7a1.5,1.5,0,1,1,2.142-2.1,60.9,60.9,0,0,1,17.49,42.941A61.3,61.3,0,0,1,8.966,90.812,1.5,1.5,0,0,1,7.982,91.181ZM22.484,97H2.5A1.5,1.5,0,0,1,1,95.5V75.517a1.5,1.5,0,0,1,3,0V94H22.484A1.5,1.5,0,0,1,22.484,97Z"/>
</svg>
