<svg id="Mortality_Graphics" data-name="Mortality Graphics" xmlns="http://www.w3.org/2000/svg" width="150" height="150" viewBox="0 0 150 150">
  <defs>
    <style>
      .cls-1 {
        fill: #cecece;
        fill-rule: evenodd;
      }
    </style>
  </defs>
  <path id="virus" class="cls-1" d="M124.361,83.659l-10.378-1.351,0.084-1.222q0.053-.752.073-1.374c0.013-.373.02-0.832,0.02-1.381q0-1.922-.167-3.7-0.169-1.831-.513-3.649l-0.222-1.181,21.205-5.787L135,64.576a6.779,6.779,0,1,0-1.875-5.156l-0.062.925-20.83,5.685L111.823,64.9a39.519,39.519,0,0,0-5.513-10.216l-0.737-.986,10.743-9.06,0.69,0.221a3.514,3.514,0,0,0,.542.13,3.684,3.684,0,0,0,.563.039A3.611,3.611,0,1,0,114.5,41.41a3.785,3.785,0,0,0,.019.4,3.641,3.641,0,0,0,.066.389l0.168,0.765L104.1,51.943l-0.848-.891a39.885,39.885,0,0,0-8.875-6.994l-1.061-.614,7.532-15.062,0.857,0.052,0.18,0.01c0.031,0,.024,0,0.177,0a5.747,5.747,0,1,0-4.013-1.633l0.682,0.666-7.47,14.938-1.127-.482a39.184,39.184,0,0,0-12.719-3.071l-1.2-.085L76.026,16.33l0.8-.342a6.771,6.771,0,1,0-5.47-.063l0.755,0.344L72.3,38.81l-1.2.105a39,39,0,0,0-9.995,2.2l-1.159.42L53.526,26.669l0.618-.628a5.279,5.279,0,1,0-3.761,1.572c0.222,0-.073.007,0.081,0l0.972-.029,6.412,14.854-1.1.556a39.655,39.655,0,0,0-9.808,7.014l-0.894.873-9.434-8.924,0.432-.864a3.565,3.565,0,0,0,.28-0.781,3.641,3.641,0,0,0,.095-0.834,3.6,3.6,0,1,0-2.834,3.528,3.548,3.548,0,0,0,.731-0.244l0.8-.368,9.478,8.965-0.825.944A39.727,39.727,0,0,0,38.9,61.194l-0.522,1.083-21.5-8.283,0.012-.917h0a6.8,6.8,0,1,0-2.238,5.033l0.594-.535,21.719,8.368L36.623,67.1a39.321,39.321,0,0,0-1.211,5.544,39.914,39.914,0,0,0-.4,5.692q0,1.1.05,2.063,0.053,1.032.159,2.053l0.126,1.22-12.66,2.1-0.453-.776a5.768,5.768,0,0,0-2.1-2.095,5.742,5.742,0,1,0,2.791,6.024l0.165-.9,12.63-2.09,0.273,1.2a39.408,39.408,0,0,0,6.965,14.99l0.742,0.985-9.183,7.808-0.773-.387a4.413,4.413,0,1,0,2.433,3.947,4.532,4.532,0,0,0-.024-0.492,4.425,4.425,0,0,0-.078-0.478l-0.171-.767,9.277-7.889,0.851,0.887A39.775,39.775,0,0,0,57.4,113.991l1.084,0.524-7.319,18.918-0.842.048a6.8,6.8,0,1,0,5.135,1.91l-0.618-.6,7.3-18.861,1.151,0.342a39.136,39.136,0,0,0,5.574,1.224,39.778,39.778,0,0,0,5.722.409q0.912,0,1.616-.029c0.483-.02,1.017-0.054,1.6-0.1l1.223-.1,1.737,12.218-0.8.434a5.069,5.069,0,0,0-1.942,1.861,5.044,5.044,0,1,0,5.822-2.247l-0.8-.244-1.753-12.335,1.212-.245a39.26,39.26,0,0,0,14.368-6.076l1-.68L113,129.171l-0.545.8a6.78,6.78,0,1,0,5.607-2.966c-0.177,0-.333.005-0.466,0.014-0.17.012-.326,0.027-0.467,0.047l-0.728.1-15.5-19.25,0.876-.829a39.788,39.788,0,0,0,6.278-7.632l0.659-1.042,14.052,7.732-0.179.933q-0.054.284-.078,0.53c-0.014.146-.021,0.324-0.021,0.536a5.617,5.617,0,1,0,2.174-4.444l-0.677.525-14.175-7.8,0.528-1.109a39.416,39.416,0,0,0,3.12-9.528l0.231-1.212,10.715,1.395,0.243,0.811a3.611,3.611,0,1,0,.831-3.52l-0.458.486-0.663-.086h0Zm-7.621-3.624,7.343,0.955a6.222,6.222,0,1,1-1.628,7.355l-6.675-.868q-0.449,2.033-1.087,3.978-0.645,1.972-1.476,3.856l10.575,5.819a8.235,8.235,0,1,1-3.919,7.012c0-.181.009-0.38,0.025-0.595l-10.3-5.67q-1.13,1.677-2.418,3.242t-2.739,3.016l13.1,16.267c0.19-.011.368-0.017,0.531-0.017a9.4,9.4,0,1,1-8.277,4.956L97.328,113.867a42.2,42.2,0,0,1-6.341,3.34,41.729,41.729,0,0,1-6.771,2.2l1.184,8.333a7.658,7.658,0,1,1-7.476.777l-1.145-8.059c-0.155.007-.313,0.015-0.476,0.021-0.636.027-1.21,0.039-1.719,0.039A42.241,42.241,0,0,1,63.708,119.1l-5.827,15.059a9.39,9.39,0,1,1-8.559-3.2l5.865-15.158a42.22,42.22,0,0,1-10.181-7.391l-6.259,5.322a7.045,7.045,0,1,1-4.663-5.9l6.051-5.145a41.979,41.979,0,0,1-6.406-13.8l-8.465,1.4a8.338,8.338,0,1,1-1.281-7.4l8.526-1.411q-0.036-.48-0.06-0.962-0.06-1.155-.06-2.2a42.493,42.493,0,0,1,.435-6.06,41.937,41.937,0,0,1,.968-4.753L15.769,60.574a9.388,9.388,0,1,1,3.7-8.381l17.618,6.788a42.093,42.093,0,0,1,4.908-7.436L35.561,45.46q-0.209.062-.422,0.108a6.235,6.235,0,1,1,4.734-4.658q-0.051.219-.12,0.434l6.275,5.936a42.315,42.315,0,0,1,8.452-6.043L49.716,30.2a7.9,7.9,0,1,1,6.887-3.01l4.776,11.063a42.123,42.123,0,0,1,4.08-1.117,42.691,42.691,0,0,1,4.212-.71L69.516,17.911A9.391,9.391,0,1,1,78.649,18L78.8,36.354a42.124,42.124,0,0,1,11.22,2.708l5.551-11.1a8.35,8.35,0,1,1,6.856,3.092L96.74,42.427a42.187,42.187,0,0,1,7.542,5.944l7.623-6.429c-0.016-.186-0.025-0.364-0.025-0.533a6.264,6.264,0,1,1,5.269,6.151c-0.07-.011-0.14-0.023-0.209-0.036l-7.81,6.587a42.4,42.4,0,0,1,2.62,4.242,41.856,41.856,0,0,1,2.1,4.531l16.773-4.577a9.406,9.406,0,1,1,3.064,8.627l-17.436,4.758q0.21,1.332.339,2.709,0.184,1.992.187,3.931,0,0.605-.03,1.462l-0.009.241h0Z"/>
</svg>
