<?xml version="1.0" encoding="UTF-8"?> <svg xmlns="http://www.w3.org/2000/svg" width="700" height="229" viewBox="0 0 700 229" fill="none"><g clip-path="url(#clip0)"><path d="M31.2505 118.27C31.2505 118.27 23.0776 40.9596 98.0829 53.2189C173.088 65.481 176.693 30.9107 173.088 9.99732C173.088 9.99732 160.59 39.9782 111.547 9.44816C66.6557 -18.5046 -14.9019 14.9536 30.7721 118.27H31.2505Z" fill="url(#paint0_linear)"></path><path d="M111.547 9.56776C71.1392 -15.5898 1.0498 8.24646 20.7478 89.3336C21.2942 67.569 29.4074 17.2919 93.9831 27.8492C137.561 34.97 159.067 27.599 169.059 15.7069C162.297 22.6182 145.891 30.9461 111.547 9.56776Z" fill="url(#paint1_linear)"></path><path d="M142.751 55.7363C142.751 55.7363 150.929 133.047 75.9242 120.788C0.918911 108.526 -2.68602 143.096 0.918911 164.009C0.918911 164.009 13.4174 134.029 62.4547 164.559C107.351 192.511 188.906 159.053 143.232 55.7363H142.751Z" fill="url(#paint2_linear)"></path><path d="M62.455 164.44C102.866 189.597 172.96 165.758 153.259 84.6709C152.713 106.435 144.597 156.713 80.0241 146.155C36.4435 139.037 14.9427 146.408 4.94836 158.3C11.7102 151.389 28.1157 143.061 62.455 164.44Z" fill="url(#paint3_linear)"></path><path d="M247.598 104.932C244.929 99.3171 241.063 94.9911 236.001 91.9536C230.938 88.824 225.048 87.2593 218.328 87.2593C211.609 87.2593 205.534 88.824 200.103 91.9536C194.765 94.9911 190.531 99.4092 187.401 105.208C184.364 110.915 182.845 117.542 182.845 125.09C182.845 132.637 184.364 139.265 187.401 144.971C190.531 150.678 194.765 155.096 200.103 158.226C205.534 161.263 211.609 162.782 218.328 162.782C227.717 162.782 235.448 159.975 241.523 154.36C247.598 148.745 251.142 141.151 252.155 131.579H213.772V121.362H265.547V131.027C264.811 138.942 262.326 146.214 258.091 152.841C253.857 159.376 248.289 164.577 241.385 168.443C234.482 172.216 226.796 174.103 218.328 174.103C209.4 174.103 201.254 172.032 193.89 167.89C186.527 163.656 180.682 157.812 176.356 150.356C172.122 142.9 170.005 134.478 170.005 125.09C170.005 115.701 172.122 107.279 176.356 99.8234C180.682 92.2756 186.527 86.4309 193.89 82.2889C201.254 78.0547 209.4 75.9378 218.328 75.9378C228.545 75.9378 237.565 78.4689 245.389 83.5315C253.305 88.5941 259.058 95.7273 262.648 104.932H247.598ZM294.723 71.1055V173.275H282.159V71.1055H294.723ZM311.443 135.169C311.443 127.437 313.007 120.672 316.137 114.873C319.266 108.982 323.546 104.426 328.977 101.204C334.5 97.9826 340.621 96.3717 347.339 96.3717C353.966 96.3717 359.72 97.7983 364.597 100.652C369.478 103.505 373.112 107.095 375.504 111.421V97.6143H388.207V173.275H375.504V159.192C373.019 163.61 369.291 167.292 364.321 170.238C359.444 173.091 353.738 174.518 347.201 174.518C340.483 174.518 334.408 172.861 328.977 169.547C323.546 166.234 319.266 161.585 316.137 155.603C313.007 149.62 311.443 142.808 311.443 135.169ZM375.504 135.307C375.504 129.6 374.355 124.63 372.053 120.395C369.754 116.161 366.623 112.94 362.664 110.731C358.798 108.429 354.518 107.279 349.824 107.279C345.131 107.279 340.851 108.384 336.985 110.593C333.119 112.802 330.035 116.023 327.735 120.257C325.433 124.492 324.283 129.462 324.283 135.169C324.283 140.967 325.433 146.03 327.735 150.356C330.035 154.59 333.119 157.857 336.985 160.159C340.851 162.368 345.131 163.472 349.824 163.472C354.518 163.472 358.798 162.368 362.664 160.159C366.623 157.857 369.754 154.59 372.053 150.356C374.355 146.03 375.504 141.013 375.504 135.307ZM500.428 96.2337C506.316 96.2337 511.563 97.4763 516.167 99.9615C520.768 102.355 524.403 105.991 527.074 110.869C529.743 115.747 531.078 121.684 531.078 128.679V173.275H518.652V130.474C518.652 122.927 516.764 117.174 512.992 113.216C509.309 109.166 504.293 107.141 497.942 107.141C491.405 107.141 486.207 109.258 482.341 113.492C478.475 117.634 476.542 123.663 476.542 131.579V173.275H464.116V130.474C464.116 122.927 462.228 117.174 458.455 113.216C454.772 109.166 449.757 107.141 443.406 107.141C436.868 107.141 431.67 109.258 427.804 113.492C423.938 117.634 422.005 123.663 422.005 131.579V173.275H409.441V97.6143H422.005V108.522C424.491 104.564 427.804 101.526 431.946 99.4092C436.178 97.2923 440.827 96.2337 445.891 96.2337C452.242 96.2337 457.854 97.6603 462.735 100.514C467.612 103.367 471.247 107.555 473.642 113.078C475.758 107.739 479.255 103.597 484.136 100.652C489.013 97.7065 494.442 96.2337 500.428 96.2337ZM607.744 98.7189L565.219 208.344H562.32L575.85 173.689L543.819 98.7189H546.58L577.231 170.376L604.982 98.7189H607.744ZM655.228 174.242C648.325 174.242 642.112 172.723 636.589 169.685C631.067 166.556 626.693 162.138 623.473 156.431C620.342 150.632 618.779 143.821 618.779 135.997C618.779 128.173 620.342 121.408 623.473 115.701C626.693 109.902 631.067 105.484 636.589 102.447C642.112 99.3171 648.325 97.7524 655.228 97.7524C662.132 97.7524 668.345 99.3171 673.867 102.447C679.39 105.484 683.715 109.902 686.846 115.701C689.973 121.408 691.54 128.173 691.54 135.997C691.54 143.821 689.973 150.632 686.846 156.431C683.715 162.138 679.39 166.556 673.867 169.685C668.345 172.723 662.132 174.242 655.228 174.242ZM655.228 171.756C661.21 171.756 666.733 170.468 671.796 167.89C676.857 165.221 680.954 161.217 684.084 155.879C687.212 150.54 688.779 143.913 688.779 135.997C688.779 128.081 687.212 121.454 684.084 116.115C680.954 110.777 676.857 106.819 671.796 104.242C666.733 101.572 661.21 100.238 655.228 100.238C649.243 100.238 643.676 101.572 638.522 104.242C633.459 106.819 629.361 110.823 626.234 116.253C623.104 121.592 621.54 128.173 621.54 135.997C621.54 143.821 623.104 150.448 626.234 155.879C629.361 161.217 633.459 165.221 638.522 167.89C643.676 170.468 649.243 171.756 655.228 171.756Z" fill="white"></path></g><defs><linearGradient id="paint0_linear" x1="225.612" y1="-80.7442" x2="20.8276" y2="100.416" gradientUnits="userSpaceOnUse"><stop offset="0.012" stop-color="#E0B386"></stop><stop offset="0.519" stop-color="#DA498C"></stop><stop offset="1" stop-color="#961484"></stop></linearGradient><linearGradient id="paint1_linear" x1="95.4728" y1="7.36752" x2="84.6546" y2="150.888" gradientUnits="userSpaceOnUse"><stop offset="0.012" stop-color="#E0B386"></stop><stop offset="0.519" stop-color="#DA498C"></stop><stop offset="1" stop-color="#961484"></stop></linearGradient><linearGradient id="paint2_linear" x1="-51.5977" y1="254.758" x2="153.178" y2="73.5982" gradientUnits="userSpaceOnUse"><stop stop-color="#29D3DA"></stop><stop offset="0.519" stop-color="#0077FF"></stop><stop offset="0.999" stop-color="#064093"></stop><stop offset="1" stop-color="#084698"></stop></linearGradient><linearGradient id="paint3_linear" x1="78.5367" y1="166.652" x2="89.3439" y2="23.1427" gradientUnits="userSpaceOnUse"><stop stop-color="#29D3DA"></stop><stop offset="0.519" stop-color="#0077FF"></stop><stop offset="0.999" stop-color="#064093"></stop><stop offset="1" stop-color="#084698"></stop></linearGradient><clipPath id="clip0"><rect width="700" height="228.501" fill="white"></rect></clipPath></defs></svg> 